<svg xmlns="http://www.w3.org/2000/svg" viewBox="0 0 114.73 83.8"><defs><style>.cls-1{font-size:8.5px;font-family:Montserrat-ExtraBold, Montserrat;font-weight:800;letter-spacing:0.26em;}.cls-1,.cls-3{fill:#de571e;}.cls-2{letter-spacing:0.26em;}</style></defs><title>logo</title><g id="Capa_2" data-name="Capa 2"><g id="OBJECTS"><text class="cls-1" transform="translate(66.94 59.81)">THE<tspan x="0" y="10.86">DESIGN</tspan><tspan class="cls-2"><tspan x="0" y="21.71">CLUB</tspan></tspan></text><path class="cls-3" d="M9.47,34.79C14.26,38,20.75,38.9,26.29,38.9q11.58,0,17.6-4.88a15.74,15.74,0,0,0,6-12.82A16.12,16.12,0,0,0,41.15,6.58a26.36,26.36,0,0,0-5.58-2.07,39.68,39.68,0,0,0-9.28-1q-11.59,0-17.6,4.88a15.72,15.72,0,0,0-6,12.83,17.29,17.29,0,0,0,1.77,8.1A14.86,14.86,0,0,0,9.47,34.79ZM20.76,9.07a6.16,6.16,0,0,1,11,0q2,3.43,2,12.13t-2,12.12a6.16,6.16,0,0,1-11,0q-2-3.43-2-12.12T20.76,9.07Z"/><path class="cls-3" d="M49.63,48.4Q45.05,43.74,37,43.73H16.63q-4.83,0-6.71-1a3.12,3.12,0,0,1-1.86-2.51A3.42,3.42,0,0,1,9,37.9c-3.45-.3-7.15,1.67-8.28,5A11.2,11.2,0,0,0,4.29,55.43q4.29,3.33,12.34,3.32H37q12.87,0,12.87,7,0,5.47-6.06,9.17a32.34,32.34,0,0,1-15,4.33,36.72,36.72,0,0,1-16-2.58,8.49,8.49,0,0,0,3.4-6.77,8.22,8.22,0,0,0-3.57-6.66,8,8,0,0,0-7.51-.68A8.84,8.84,0,0,0,1.26,66,7.83,7.83,0,0,0,0,70.91a8.09,8.09,0,0,0,2.82,5c4.27,3.76,11.05,4.88,16.52,5.48a57.56,57.56,0,0,0,18.23-1.08c5-1,10-3.39,13.19-7.48,2.46-3.17,3.39-7.51,3.39-11.44Q54.19,53.07,49.63,48.4Z"/><circle class="cls-3" cx="58.6" cy="8.18" r="8.18" transform="translate(0.85 21.04) rotate(-20.5)"/></g></g></svg>